# xmcd CD database file
# Copyright (C) 1995 Ti Kan
#
# Track frame offsets:
#	150
#	10372
#	21985
#	32085
#	43160
#	55365
#	67630
#	78995
#	90975
#	102967
#	113370
#	125962
#
# Disc length: 1875 seconds
#
# Revision: 3
# Processed by: cddbd v1.4b41PL1 Copyright (c) Steve Scherf et al.
# Submitted via: NotifyCDPlayer(CDDB) 1.05
#
DISCID=9207510c
DTITLE=Bobby "Blue" Bland - The Best of Bobby Bland
DYEAR=1900
DGENRE=
TTITLE0=Poverty
TTITLE1=I Smell Trouble
TTITLE2=Someday
TTITLE3=I'll Take Care Of You
TTITLE4=I Pity The Fool
TTITLE5=Cry Cry Cry
TTITLE6=Turn On Your Love Light
TTITLE7=Call On Me
TTITLE8=Ain't Nothing You Can Do
TTITLE9=If You Could Read My Mind
TTITLE10=Farther Up The Road
TTITLE11=Stormy Monday
EXTD=MCAD-321219
EXTT0=
EXTT1=
EXTT2=
EXTT3=
EXTT4=
EXTT5=
EXTT6=
EXTT7=
EXTT8=
EXTT9=
EXTT10=
EXTT11=
PLAYORDER=
